<svg xmlns="http://www.w3.org/2000/svg" viewBox="0 0 70.26 30.28">
  <defs>
    <style>
      .cls-1 {
        fill: #eff1f1;
      }

      .cls-2 {
        fill: #e7e6d1;
      }

      .cls-3 {
        fill: #494c4c;
      }

      .cls-4 {
        fill: #c5a878;
      }
    </style>
  </defs>
  <title>otto-pattern</title>
  <g id="Layer_2" data-name="Layer 2">
    <g id="Layer_6" data-name="Layer 6">
      <g>
        <path class="cls-1" d="M19.54,30.28c-.23-.67-3.28-9-3.51-9.69a.28.28,0,0,1,.07-.33c1.65-1.6,3.29-4.06,4.94-5.67a.85.85,0,0,0,.24-.42l1-3.85a.25.25,0,0,1,.29-.23h4.17a.25.25,0,0,1,.29.23c.34,1.31.69,2.61,1.05,3.92a.72.72,0,0,0,.17.29c1.66,1.62,3.31,4.09,5,5.7a.3.3,0,0,1,.09.37c-1.18,3.51-2.36,6.17-3.54,9.68h-.19Q28,28,26.32,25.64a.31.31,0,0,0-.3-.16H23.36a.33.33,0,0,0-.31.16l-3.28,4.64Z"/>
        <path class="cls-2" d="M56.43,30.28c-.23-.67-3.28-9-3.52-9.69a.28.28,0,0,1,.08-.33c1.65-1.6,3.29-4.06,4.93-5.67a.86.86,0,0,0,.25-.42l1-3.85a.25.25,0,0,1,.29-.23h4.17a.25.25,0,0,1,.29.23c.34,1.31.69,2.61,1,3.92a.72.72,0,0,0,.17.29c1.65,1.62,3.31,4.09,5,5.7a.31.31,0,0,1,.09.37c-1.19,3.51-2.36,6.17-3.54,9.68H66.5Q64.85,28,63.21,25.64a.31.31,0,0,0-.3-.16H60.25a.33.33,0,0,0-.31.16c-1.09,1.55-2.19,3.09-3.29,4.64Z"/>
        <path class="cls-3" d="M13.83,0c.22.67,3.28,9,3.51,9.69a.28.28,0,0,1-.07.33c-1.65,1.6-3.29,4.06-4.94,5.67a.85.85,0,0,0-.24.42l-1,3.85a.26.26,0,0,1-.3.23c-1.39,0-2.77,0-4.16,0A.25.25,0,0,1,6.31,20L5.26,16a.74.74,0,0,0-.18-.29c-1.65-1.62-3.3-4.09-5-5.7A.3.3,0,0,1,0,9.68C1.21,6.17,2.39,3.51,3.57,0h.19L7.05,4.64a.3.3,0,0,0,.3.16H10a.3.3,0,0,0,.3-.16L13.6,0Z"/>
        <path class="cls-4" d="M47.19,0c.23.67,3.28,9,3.52,9.69a.27.27,0,0,1-.08.33c-1.64,1.6-3.29,4.06-4.93,5.67a.94.94,0,0,0-.25.42c-.33,1.28-.69,2.57-1,3.85a.26.26,0,0,1-.3.23q-2.09,0-4.17,0c-.18,0-.24-.07-.29-.23-.34-1.31-.69-2.61-1-3.92a.74.74,0,0,0-.18-.29c-1.65-1.62-3.31-4.09-5-5.7a.29.29,0,0,1-.08-.37C34.58,6.17,35.76,3.51,36.93,0h.2l3.28,4.64a.32.32,0,0,0,.31.16h2.65a.3.3,0,0,0,.31-.16C44.77,3.09,45.87,1.55,47,0Z"/>
      </g>
    </g>
  </g>
</svg>
