<svg xmlns="http://www.w3.org/2000/svg" viewBox="0 0 105.32 37.1">
  <defs>
    <style>
      .cls-1 {
        fill: #fff;
      }
    </style>
  </defs>
  <title>otto-logo</title>
  <g id="Layer_2" data-name="Layer 2">
    <g id="Layer_6" data-name="Layer 6">
      <g>
        <g>
          <path class="cls-1" d="M21.27,36.07a.75.75,0,0,1-.16.5.87.87,0,0,1-.39.29,1.68,1.68,0,0,1-.47.14,3.25,3.25,0,0,1-.44,0H18v-.25a.81.81,0,0,0,.35-.05.23.23,0,0,0,.14-.13.81.81,0,0,0,0-.25V34.06a.51.51,0,0,0-.09-.34.7.7,0,0,0-.43-.09v-.25l.74,0h1a4,4,0,0,1,.58,0,1.19,1.19,0,0,1,.55.27.69.69,0,0,1,.25.58.68.68,0,0,1-.2.5,1.6,1.6,0,0,1-.67.34,1.49,1.49,0,0,1,.55.19.89.89,0,0,1,.36.33A.9.9,0,0,1,21.27,36.07Zm-.92-1.8a.57.57,0,0,0-.09-.32.54.54,0,0,0-.27-.22.92.92,0,0,0-.43-.08h-.28V35h.22a1,1,0,0,0,.64-.18A.63.63,0,0,0,20.35,34.27Zm.1,1.75a.85.85,0,0,0-.19-.57.7.7,0,0,0-.54-.21h-.44v.95a2.28,2.28,0,0,0,0,.31.27.27,0,0,0,.13.17.56.56,0,0,0,.3.06.76.76,0,0,0,.5-.17A.65.65,0,0,0,20.45,36Z"/>
          <path class="cls-1" d="M27.72,37h-1l-.14-.17-.17-.27-.15-.25-.25-.4a4.15,4.15,0,0,0-.25-.38.38.38,0,0,0-.19-.13,1.64,1.64,0,0,0-.37,0h-.14v1a.9.9,0,0,0,0,.25.22.22,0,0,0,.15.13.84.84,0,0,0,.35.05V37H23.8v-.25a.7.7,0,0,0,.43-.09.51.51,0,0,0,.09-.34V34.06a.47.47,0,0,0-.09-.33c-.06-.07-.21-.1-.43-.1v-.25l.84,0h.73a4.12,4.12,0,0,1,.51,0,2.38,2.38,0,0,1,.37.06,1.17,1.17,0,0,1,.38.17.86.86,0,0,1,.29.31.84.84,0,0,1,.12.45.85.85,0,0,1-.08.35.82.82,0,0,1-.25.31,1.36,1.36,0,0,1-.47.21,1.54,1.54,0,0,1,.34.28q.14.18.42.63l.28.39a.65.65,0,0,0,.21.18.7.7,0,0,0,.23.06Zm-1.51-2.67c0-.29-.08-.48-.26-.57a1.41,1.41,0,0,0-.69-.15h-.17v1.46h.17a1.68,1.68,0,0,0,.68-.13C26.12,34.89,26.21,34.68,26.21,34.36Z"/>
          <path class="cls-1" d="M33.31,35.83l0,1.2H30.05v-.25a.68.68,0,0,0,.43-.09.51.51,0,0,0,.1-.34V34.07a.78.78,0,0,0,0-.24.26.26,0,0,0-.15-.14,1,1,0,0,0-.35,0v-.25h3l0,1h-.25a1.06,1.06,0,0,0-.19-.45.43.43,0,0,0-.24-.17,2.07,2.07,0,0,0-.41,0h-.68V35h.37a1,1,0,0,0,.29,0,.22.22,0,0,0,.13-.12,1.54,1.54,0,0,0,0-.3h.26v1.21h-.25a1.54,1.54,0,0,0,0-.3.24.24,0,0,0-.14-.12.69.69,0,0,0-.28,0h-.38v.86c0,.14,0,.25,0,.31a.43.43,0,0,0,.06.17.27.27,0,0,0,.15.09,1.19,1.19,0,0,0,.31,0h.29a1.34,1.34,0,0,0,.35,0,.8.8,0,0,0,.33-.25,1.2,1.2,0,0,0,.22-.61Z"/>
          <path class="cls-1" d="M41,33.64a.6.6,0,0,0-.28.07.28.28,0,0,0-.14.16,3.61,3.61,0,0,0-.14.43l-.76,2.8h-.37l-.93-2.62-.87,2.62h-.37l-.84-2.88a2.45,2.45,0,0,0-.14-.38.34.34,0,0,0-.15-.16.49.49,0,0,0-.24,0v-.25h1.58v.25a.82.82,0,0,0-.27,0c-.06,0-.09.07-.09.16a1.22,1.22,0,0,0,.06.29l.53,1.82.86-2.55h.35l.9,2.55.45-1.71A.87.87,0,0,0,40.2,34a.25.25,0,0,0-.12-.25.71.71,0,0,0-.31-.06v-.25H41Z"/>
          <path class="cls-1" d="M46.68,35.83l0,1.2H43.41v-.25a.66.66,0,0,0,.43-.09.46.46,0,0,0,.1-.34V34.07a.78.78,0,0,0,0-.24.24.24,0,0,0-.14-.14,1.06,1.06,0,0,0-.36,0v-.25h3l0,1h-.25a1.2,1.2,0,0,0-.19-.45.43.43,0,0,0-.24-.17,2.07,2.07,0,0,0-.41,0h-.68V35h.37a.88.88,0,0,0,.28,0,.2.2,0,0,0,.13-.12,1,1,0,0,0,.06-.3h.25v1.21h-.24a1,1,0,0,0-.06-.3.22.22,0,0,0-.13-.12.75.75,0,0,0-.29,0h-.37v.86a2.46,2.46,0,0,0,0,.31.43.43,0,0,0,.06.17.27.27,0,0,0,.15.09,1.15,1.15,0,0,0,.3,0h.29a1.42,1.42,0,0,0,.36,0,.72.72,0,0,0,.32-.25,1.2,1.2,0,0,0,.23-.61Z"/>
          <path class="cls-1" d="M53.14,37h-1a1.47,1.47,0,0,1-.13-.17c-.06-.08-.11-.17-.18-.27l-.15-.25-.25-.4a2.73,2.73,0,0,0-.25-.38.38.38,0,0,0-.19-.13,1.58,1.58,0,0,0-.37,0h-.14v1a.9.9,0,0,0,0,.25.27.27,0,0,0,.16.13.79.79,0,0,0,.34.05V37H49.22v-.25a.7.7,0,0,0,.43-.09.51.51,0,0,0,.09-.34V34.06a.47.47,0,0,0-.09-.33c-.06-.07-.2-.1-.43-.1v-.25l.84,0h.73a4.12,4.12,0,0,1,.51,0,2.19,2.19,0,0,1,.37.06,1.17,1.17,0,0,1,.38.17,1,1,0,0,1,.3.31.94.94,0,0,1,.11.45.85.85,0,0,1-.08.35.82.82,0,0,1-.25.31,1.31,1.31,0,0,1-.46.21,1.29,1.29,0,0,1,.33.28c.09.12.23.33.43.63a3.39,3.39,0,0,0,.28.39.63.63,0,0,0,.2.18.7.7,0,0,0,.23.06Zm-1.5-2.67a.57.57,0,0,0-.27-.57,1.36,1.36,0,0,0-.69-.15h-.17v1.46h.17a1.68,1.68,0,0,0,.68-.13A.63.63,0,0,0,51.64,34.36Z"/>
          <path class="cls-1" d="M58.71,33.64a.61.61,0,0,0-.25.07.79.79,0,0,0-.19.18c-.07.09-.17.23-.29.42l-.77,1.18v.86a.78.78,0,0,0,0,.24.23.23,0,0,0,.15.14.78.78,0,0,0,.35.05V37H55.91v-.25a1,1,0,0,0,.35,0,.25.25,0,0,0,.15-.13.83.83,0,0,0,0-.26v-.81L55.54,34l0,0a0,0,0,0,0,0,0,.81.81,0,0,0-.21-.25.67.67,0,0,0-.28-.07v-.25h1.71v.25h-.21a.21.21,0,0,0-.12,0,.14.14,0,0,0,0,.11.35.35,0,0,0,0,.13,2.18,2.18,0,0,1,.15.27l.57.95.54-.85a1,1,0,0,0,.17-.4c0-.12,0-.19-.11-.22a1.11,1.11,0,0,0-.31,0v-.25h1.33Z"/>
          <path class="cls-1" d="M64.71,34.43h-.26a1.11,1.11,0,0,0-.14-.5.46.46,0,0,0-.25-.2,1,1,0,0,0-.3,0H63.3v2.66a.81.81,0,0,0,0,.25.22.22,0,0,0,.15.13.79.79,0,0,0,.34.05V37H62v-.25a.68.68,0,0,0,.43-.09.46.46,0,0,0,.1-.34V33.69h-.39a1.31,1.31,0,0,0-.37,0,.46.46,0,0,0-.27.2,1,1,0,0,0-.13.5h-.25v-1h3.59Z"/>
          <path class="cls-1" d="M71.22,35.21a1.9,1.9,0,0,1-.24.93,1.81,1.81,0,0,1-.7.7,2.22,2.22,0,0,1-1.09.26,2.34,2.34,0,0,1-.91-.17,1.87,1.87,0,0,1-.64-.44,2,2,0,0,1-.26-2.2,1.85,1.85,0,0,1,.69-.7,2.24,2.24,0,0,1,1.1-.26,2.33,2.33,0,0,1,1,.19,1.75,1.75,0,0,1,.63.48,2,2,0,0,1,.33.61A2.21,2.21,0,0,1,71.22,35.21Zm-.87,0a2.72,2.72,0,0,0-.06-.58,1.37,1.37,0,0,0-.18-.49.93.93,0,0,0-.36-.35,1.08,1.08,0,0,0-.56-.13,1,1,0,0,0-.72.23,1.13,1.13,0,0,0-.35.57,3,3,0,0,0-.09.75c0,.15,0,.31,0,.47a1.67,1.67,0,0,0,.15.5.93.93,0,0,0,.36.43,1,1,0,0,0,.63.18,1.08,1.08,0,0,0,.64-.18,1.1,1.1,0,0,0,.35-.45,2,2,0,0,0,.14-.5A3.52,3.52,0,0,0,70.35,35.2Z"/>
          <path class="cls-1" d="M78.82,33.64a.6.6,0,0,0-.28.07.28.28,0,0,0-.14.16,2.38,2.38,0,0,0-.14.43l-.76,2.8h-.37l-.93-2.62-.87,2.62H75l-.84-2.88a2.45,2.45,0,0,0-.14-.38.34.34,0,0,0-.15-.16.49.49,0,0,0-.24,0v-.25h1.58v.25a.82.82,0,0,0-.27,0c-.06,0-.09.07-.09.16a1.22,1.22,0,0,0,.06.29l.53,1.82.86-2.55h.35l.9,2.55L78,34.23A1.28,1.28,0,0,0,78,34a.25.25,0,0,0-.12-.25.71.71,0,0,0-.31-.06v-.25h1.24Z"/>
          <path class="cls-1" d="M85.18,33.64a1.11,1.11,0,0,0-.38,0,.27.27,0,0,0-.14.16,2.38,2.38,0,0,0,0,.33v2.88h-.25L82,34.24v2a1.31,1.31,0,0,0,0,.33.27.27,0,0,0,.14.16,1.16,1.16,0,0,0,.38.05V37H81.21v-.25a1,1,0,0,0,.35-.05.26.26,0,0,0,.13-.16,1.31,1.31,0,0,0,0-.33V34.38a2.38,2.38,0,0,0,0-.33.42.42,0,0,0,0-.2.34.34,0,0,0-.15-.14,1,1,0,0,0-.29-.07v-.25h1.06l2.07,2.45V34.18a1.19,1.19,0,0,0,0-.31.26.26,0,0,0-.14-.17.76.76,0,0,0-.35-.06v-.25h1.36Z"/>
        </g>
        <g>
          <path class="cls-1" d="M42.1,4.32v17.5H37.87V4.32H32V.42H48v3.9Z"/>
          <path class="cls-1" d="M67.54,4.32v17.5H63.31V4.32H57.46V.42H73.39v3.9Z"/>
          <path class="cls-1" d="M11.18,21.82A10.81,10.81,0,0,1,0,11v-.06A10.91,10.91,0,0,1,11.24,0,10.82,10.82,0,0,1,22.43,10.85v.06A10.92,10.92,0,0,1,11.18,21.82Zm6.39-10.91a6.41,6.41,0,0,0-6.39-6.63,6.31,6.31,0,0,0-6.33,6.57v.06a6.41,6.41,0,0,0,6.39,6.63A6.31,6.31,0,0,0,17.57,11Z"/>
          <path class="cls-1" d="M94.07,21.82A10.81,10.81,0,0,1,82.89,11v-.06a11.22,11.22,0,0,1,22.43-.06v.06A10.91,10.91,0,0,1,94.07,21.82Zm6.39-10.91a6.41,6.41,0,0,0-6.39-6.63,6.31,6.31,0,0,0-6.33,6.57v.06a6.41,6.41,0,0,0,6.39,6.63A6.31,6.31,0,0,0,100.46,11Z"/>
        </g>
      </g>
    </g>
  </g>
</svg>
