<svg xmlns="http://www.w3.org/2000/svg" viewBox="0 0 101.17 16.6">
  <defs>
    <style>
      .cls-1 {
        fill: #565656;
      }
    </style>
  </defs>
  <title>equinox-logo</title>
  <g id="Layer_2" data-name="Layer 2">
    <g id="Layer_6" data-name="Layer 6">
      <g>
        <g>
          <g>
            <path class="cls-1" d="M37.77,14a9.24,9.24,0,0,1,2.28.75,15.4,15.4,0,0,0,2,.6,8.34,8.34,0,0,0,1.5,0l.18,0a.36.36,0,0,1-.17.48c-.37.22-.71.47-1.07.7a.54.54,0,0,1-.33.06l-4.22-1.21a8.82,8.82,0,0,0-.89-.2,1.16,1.16,0,0,0-.85.14c-.29.18-.6.33-.9.49a.63.63,0,0,1,.29-.75c.57-.35,1.11-.73,1.59-1.06-.39,0-.88-.07-1.36-.16a5.26,5.26,0,0,1-4.36-4.12A6.76,6.76,0,0,1,31.8,5,5.67,5.67,0,0,1,36,1.82a7.54,7.54,0,0,1,4.73.49,4.93,4.93,0,0,1,2.9,3.89,6.47,6.47,0,0,1-.32,3.59,6.37,6.37,0,0,1-4.7,4.07l-.43.06-.4,0ZM37.28,2.36c-.31,0-.63,0-.93.09a3.63,3.63,0,0,0-2.41,1.43,4.72,4.72,0,0,0-.89,2.48,7.88,7.88,0,0,0,.74,4.43,4.33,4.33,0,0,0,2.64,2.3,4.49,4.49,0,0,0,1.71.16,3.52,3.52,0,0,0,3.24-2.31,8.11,8.11,0,0,0,.08-5.76A4,4,0,0,0,40,3.2,4.57,4.57,0,0,0,37.28,2.36Z"/>
            <path class="cls-1" d="M74.32,12a2.07,2.07,0,0,0,0-.21c0-2.76,0-5.53,0-8.3,0-.9-.18-.87-.82-.94l-.76-.07V2h4l0,0c0,.47,0,.46-.42.49-.23,0-.47,0-.7.08a.42.42,0,0,0-.39.38,8.76,8.76,0,0,0-.08,1q0,4.62,0,9.26c0,.23,0,.47.05.74a8.57,8.57,0,0,0-1-.16,1.24,1.24,0,0,1-1-.6C71.5,11.05,69.74,8.88,68,6.7c-.73-.89-1.45-1.79-2.17-2.68,0-.06-.09-.11-.18-.22v.28c0,2.48,0,5,0,7.44a8.59,8.59,0,0,0,.08,1.13c0,.31.16.41.48.45s.68.07,1,.11v.47h-4v-.47l1-.1c.35,0,.48-.16.52-.52a10,10,0,0,0,.07-1.09V4.09a6.63,6.63,0,0,0-.07-1c0-.39-.18-.51-.57-.55l-.66,0-.3,0V2h2.82a.3.3,0,0,1,.19.1c.91,1.11,1.81,2.23,2.72,3.35l4.6,5.68C73.83,11.36,74.05,11.64,74.32,12Z"/>
            <path class="cls-1" d="M21.07,13.69v-.48l.84-.1c.42-.06.54-.19.57-.62s.05-.64.05-1V4.05a7,7,0,0,0-.07-1c-.05-.34-.21-.46-.56-.49l-1-.08V2h9l-.25,2.57H29v-1c0-.54,0-.56-.54-.69a14.08,14.08,0,0,0-3.55-.21,7.42,7.42,0,0,0-.79.1V7.32l.37,0h2.42a6.39,6.39,0,0,0,.75-.09.31.31,0,0,0,.3-.31c0-.26.07-.51.09-.77s0-.31.33-.3h.19V9.68h0c-.56,0-.45.05-.48-.42,0-.25-.06-.51-.09-.77a.29.29,0,0,0-.27-.29,7.47,7.47,0,0,0-.95-.12H24.15v4.78a4.3,4.3,0,0,0,.72.09c1.1,0,2.2,0,3.29,0,.16,0,.32,0,.48-.05a.65.65,0,0,0,.61-.53c.12-.47.23-.95.35-1.45h.49l-.25,2.79H21.07Z"/>
            <path class="cls-1" d="M53,2.45V2h4s0,0,0,0c.06.48,0,.48-.42.51a5.56,5.56,0,0,0-.7.08.43.43,0,0,0-.41.42c0,.36-.07.73-.07,1.09,0,1.83,0,3.66,0,5.49a5.93,5.93,0,0,1-.42,2.16,3.3,3.3,0,0,1-2.41,2,8.41,8.41,0,0,1-4.11,0,3,3,0,0,1-2.29-2.58A7.46,7.46,0,0,1,46,10c0-2,0-4.1,0-6.15A6.11,6.11,0,0,0,45.93,3a.49.49,0,0,0-.52-.45l-.68,0-.39,0V2h4.94v.48l-1,.07c-.43,0-.59.19-.63.63,0,.28,0,.57,0,.86,0,1.91,0,3.81,0,5.72a7.34,7.34,0,0,0,.17,1.4,2.08,2.08,0,0,0,1.53,1.57,5.76,5.76,0,0,0,3.24,0,2.67,2.67,0,0,0,2-2.39,10.69,10.69,0,0,0,.08-1.5c0-1.81,0-3.63,0-5.44V3.36c0-.61-.15-.75-.75-.83Z"/>
            <path class="cls-1" d="M57.68,2H62.6a0,0,0,0,1,0,0c.07.45,0,.48-.4.49l-.66,0a.51.51,0,0,0-.54.51,5.52,5.52,0,0,0,0,.71V11.9a5.49,5.49,0,0,0,0,.7.5.5,0,0,0,.49.51c.36.05.73.06,1.11.1v.47H57.69V13.2c.35,0,.69,0,1-.08s.55-.21.58-.65,0-.62,0-.93q0-3.75,0-7.5a6.37,6.37,0,0,0-.06-1c0-.37-.21-.49-.58-.52l-1-.08Z"/>
          </g>
          <g>
            <path class="cls-1" d="M83.29,14.06A6.16,6.16,0,0,1,79.76,13,5.46,5.46,0,0,1,77.5,9.66a6.8,6.8,0,0,1,.29-4.34,5.6,5.6,0,0,1,4.1-3.4,7.58,7.58,0,0,1,4.7.34,5,5,0,0,1,3.14,4,6.56,6.56,0,0,1-.8,4.6A6.27,6.27,0,0,1,84.2,14C83.9,14,83.6,14,83.29,14.06Zm.09-11.64-.57,0a3.8,3.8,0,0,0-2.42,1.08,4.78,4.78,0,0,0-1.28,3.23,8.51,8.51,0,0,0,.24,2.61,5.42,5.42,0,0,0,1.72,3A4.22,4.22,0,0,0,85.5,13a3.65,3.65,0,0,0,2.16-2.53,8.29,8.29,0,0,0,0-5.12,4.12,4.12,0,0,0-1.52-2.13A4.53,4.53,0,0,0,83.38,2.42Z"/>
            <path class="cls-1" d="M96.58,7.29c1.12,1.77,2.24,3.52,3.34,5.27a1.19,1.19,0,0,0,1.09.68.47.47,0,0,1,.16,0v.5a4.68,4.68,0,0,0-.64,0c-.54,0-1.07,0-1.6,0a.3.3,0,0,1-.32-.16c-.94-1.59-1.89-3.17-2.84-4.76a2.77,2.77,0,0,0-.15-.24c-.22.3-.43.57-.62.86-.89,1.37-1.78,2.76-2.68,4.13a.31.31,0,0,1-.21.16c-.54,0-1.07,0-1.63,0v-.48l0,0c.73,0,1.11-.46,1.48-1l3.11-4.2c0-.06.07-.18,0-.23q-1.22-2-2.46-4a2.57,2.57,0,0,0-.34-.4A1.56,1.56,0,0,0,91,2.78l-.23,0-.06-.42L92.41,2c.11,0,.24,0,.35-.07a.51.51,0,0,1,.64.19c.24.32.49.63.7,1,.7,1.16,1.39,2.33,2.1,3.53l.94-1.38,2.07-3A.32.32,0,0,1,99.53,2H101v.52a3.93,3.93,0,0,1-.48,0,.71.71,0,0,0-.61.26c-.33.41-.66.82-1,1.24C98.16,5.15,97.38,6.21,96.58,7.29Z"/>
          </g>
        </g>
        <g>
          <path class="cls-1" d="M8.3,2.73A15.24,15.24,0,0,0,9.83,5.56a15.53,15.53,0,0,0,3.53,3.56c.56.42,1.18.8,1.58,1a7.88,7.88,0,0,0,.41-2.49A7.68,7.68,0,0,0,7.67,0H7.45A16.18,16.18,0,0,0,8.3,2.73Z"/>
          <path class="cls-1" d="M4.73,8.57A16.56,16.56,0,0,1,5.5,1.85c.19-.56.45-1.2.68-1.7a7.67,7.67,0,0,0,.55,15.14A18.82,18.82,0,0,1,4.73,8.57Z"/>
          <path class="cls-1" d="M8.47,11A14.88,14.88,0,0,1,7.26,7.78,19.42,19.42,0,0,1,6.68,4a22.68,22.68,0,0,1,.16-4h0A20.31,20.31,0,0,0,6,2a15.82,15.82,0,0,0-.73,6.5,18.4,18.4,0,0,0,2.09,6.82h.31a7.61,7.61,0,0,0,3.41-.8A15.47,15.47,0,0,1,8.47,11Z"/>
          <path class="cls-1" d="M13,9.56A16.32,16.32,0,0,1,9.39,5.87,15.72,15.72,0,0,1,7.81,2.94a15.05,15.05,0,0,1-.57-1.59A21.6,21.6,0,0,0,7.22,4a17.94,17.94,0,0,0,.56,3.63A14.37,14.37,0,0,0,9,10.71a14.87,14.87,0,0,0,2.63,3.57,7.72,7.72,0,0,0,3.16-3.61C14.34,10.43,13.66,10,13,9.56Z"/>
        </g>
      </g>
    </g>
  </g>
</svg>
