<svg xmlns="http://www.w3.org/2000/svg" viewBox="0 0 41.59 48.34"><defs><style>.cls-1{fill:#c3a777}</style></defs><title>otto-mark</title><g id="Layer_2" data-name="Layer 2"><g id="Layer_6" data-name="Layer 6"><path class="cls-1" d="M33.11 0c.55 1.61 7.86 23.63 8.42 25.24a.64.64 0 0 1-.18.78L29.53 37.58a2 2 0 0 0-.58 1c-.81 3.08-1.66 6.16-2.47 9.24a.59.59 0 0 1-.7.53h-10c-.44 0-.59-.15-.7-.54q-1.23-4.69-2.5-9.38a1.55 1.55 0 0 0-.43-.7Q6.25 31.9.28 26.1a.72.72 0 0 1-.21-.89Q4.32 12.61 8.54 0H9q3.95 5.55 7.87 11.11a.8.8 0 0 0 .73.4h6.37a.79.79 0 0 0 .73-.39Q28.63 5.56 32.57 0z"/><path class="cls-1" d="M23.57 46.56l-2.7-3.51L18 46.56h5.57zM17.6 11.51L1.08 25.43a.42.42 0 0 0 .24.75l15.44 1.09L20.49 19a.33.33 0 0 1 .6 0l3.61 8.22L41.35 26M24.7 11.51l16.83 13.73M20.86 44.81V19.05"/></g></g></svg>