<svg xmlns="http://www.w3.org/2000/svg" viewBox="0 0 74.2 77.13">
  <defs>
    <style>
      .cls-1 {
        isolation: isolate;
      }

      .cls-2 {
        mix-blend-mode: darken;
      }

      .cls-3 {
        fill: #cd4827;
      }
    </style>
  </defs>
  <title>otto-stamp</title>
  <g class="cls-1">
    <g id="Layer_2" data-name="Layer 2">
      <g id="Layer_6" data-name="Layer 6">
        <g class="cls-2">
          <g>
            <path class="cls-3" d="M29.16,20.85l-.54.2L29,22l-.68.28c-.43-1-.85-2-1.28-3,.47-.21.95-.4,1.43-.57.85-.31,1.51,0,1.69.62h0C30.36,20,29.88,20.58,29.16,20.85Zm.22-1.29c-.1-.3-.39-.38-.77-.24l-.59.22.37.92.57-.22c.37-.13.51-.4.43-.67Z"/>
            <path class="cls-3" d="M36.07,20.37c0-.43,0-.86-.08-1.3-.47,0-.93.08-1.4.13,0,.43.1.86.16,1.29l-.72.1c-.16-1.07-.33-2.13-.49-3.2l.82-.11.15,1.27c.48-.06,1-.1,1.44-.13l-.09-1.28c.28,0,.55,0,.83,0,0,1.08.07,2.16.1,3.24C36.55,20.34,36.31,20.36,36.07,20.37Z"/>
            <path class="cls-3" d="M40.4,20.49l.39-3.22c.27,0,.55.07.82.12L41.22,20c.56.08,1.11.19,1.67.31l-.15.64A22.89,22.89,0,0,0,40.4,20.49Z"/>
          </g>
          <path class="cls-3" d="M40.83,77a36.32,36.32,0,0,1-27.72-8.9A39.44,39.44,0,0,1,.22,42l0-.34A39.21,39.21,0,0,1,7.91,13.82,36,36,0,0,1,33.36.17a36.23,36.23,0,0,1,27.72,8.9A39.41,39.41,0,0,1,74,35.15l0,.34a39.15,39.15,0,0,1-7.73,27.82A36,36,0,0,1,40.83,77ZM33.54,2.09A34,34,0,0,0,9.44,15,37.23,37.23,0,0,0,2.11,41.47l0,.34A37.54,37.54,0,0,0,14.39,66.62,34.34,34.34,0,0,0,40.65,75,34.06,34.06,0,0,0,64.76,62.13a37.25,37.25,0,0,0,7.33-26.46l0-.34A37.5,37.5,0,0,0,59.8,10.51,34.32,34.32,0,0,0,33.54,2.09Z"/>
          <g>
            <path class="cls-3" d="M22.26,43.58a3.17,3.17,0,0,1-3.56-2.87h0a3.29,3.29,0,0,1,6.55-.63v0A3.19,3.19,0,0,1,22.26,43.58Zm1.58-3.36a1.89,1.89,0,0,0-2.05-1.77,1.87,1.87,0,0,0-1.68,2.1h0a1.89,1.89,0,0,0,2.05,1.77,1.85,1.85,0,0,0,1.68-2.09Z"/>
            <path class="cls-3" d="M49,37.86v0a3.18,3.18,0,0,1,3-3.48,3.22,3.22,0,0,1,3.59,2.89v0a3.29,3.29,0,0,1-6.56.59Zm1.42-.12a1.85,1.85,0,0,0,2,1.75,1.88,1.88,0,0,0,1.69-2.11v0a1.86,1.86,0,0,0-2-1.75,1.89,1.89,0,0,0-1.69,2.12Z"/>
            <path class="cls-3" d="M32.81,37.31l.47,5.08-1.23.11-.47-5.08-1.69.16-.11-1.13L34.4,36l.11,1.13Z"/>
            <path class="cls-3" d="M42.54,36.41,43,41.48l-1.23.12-.47-5.08-1.69.16-.11-1.13,4.62-.43.11,1.13Z"/>
          </g>
          <g>
            <path class="cls-3" d="M30.77,60.18c-.21-.41-.42-.82-.62-1.23-.32.32-.65.64-1,.95l-.89-.19c.53-.44,1-.9,1.55-1.36-.28-.6-.55-1.2-.79-1.79l.83.17c.16.39.33.78.51,1.16.3-.3.59-.61.87-.92l.82.11q-.64.72-1.35,1.41c.32.61.65,1.21,1,1.81C31.39,60.27,31.08,60.22,30.77,60.18Z"/>
            <path class="cls-3" d="M37.66,60.52q-.44-.54-.84-1.08c-.25.37-.51.75-.79,1.12h-.9c.43-.54.84-1.09,1.24-1.64-.39-.53-.77-1.06-1.12-1.6h.84c.23.35.47.69.72,1,.23-.36.45-.72.67-1.08l.82-.05c-.33.55-.67,1.1-1,1.64.43.54.87,1.07,1.33,1.59Z"/>
            <path class="cls-3" d="M44.47,59.49l-1-.89c-.17.42-.36.84-.55,1.26L42,60c.32-.62.62-1.24.89-1.86q-.74-.66-1.41-1.35l.83-.16.91.88c.15-.39.3-.79.44-1.19.27-.06.53-.13.8-.21-.21.61-.44,1.22-.69,1.82.52.44,1.06.87,1.61,1.29Z"/>
            <path class="cls-3" d="M48.93,58l-1.21-3,.67-.29c.43,1,.86,2,1.28,3Z"/>
          </g>
        </g>
      </g>
    </g>
  </g>
</svg>
